STARTFONT 2.1
FONT blit-9x14
SIZE 14 75 75
FONTBOUNDINGBOX 9 14 0 -3
STARTPROPERTIES 3
FONT_ASCENT 11
FONT_DESCENT 3
DEFAULT_CHAR 0
ENDPROPERTIES
CHARS 128
STARTCHAR C000
ENCODING 0
SWIDTH 714 0
DWIDTH 9 0
BBX 9 14 0 -3
BITMAP
0000
3000
4800
4800
4800
3000
0000
0000
0600
0900
0900
0900
0600
0000
ENDCHAR
STARTCHAR C001
ENCODING 1
SWIDTH 714 0
DWIDTH 9 0
BBX 9 14 0 -3
BITMAP
0000
3000
4000
2000
1000
6000
0000
0000
0900
0900
0f00
0900
0900
0000
ENDCHAR
STARTCHAR C002
ENCODING 2
SWIDTH 714 0
DWIDTH 9 0
BBX 9 14 0 -3
BITMAP
0000
3000
4000
2000
1000
6000
0000
0000
1100
0a00
0400
0a00
1100
0000
ENDCHAR
STARTCHAR C003
ENCODING 3
SWIDTH 714 0
DWIDTH 9 0
BBX 9 14 0 -3
BITMAP
0000
7800
4000
7000
4000
7800
0000
0000
1100
0a00
0400
0a00
1100
0000
ENDCHAR
STARTCHAR C004
ENCODING 4
SWIDTH 714 0
DWIDTH 9 0
BBX 9 14 0 -3
BITMAP
0000
7800
4000
7000
4000
7800
0000
0000
1f00
0400
0400
0400
0400
0000
ENDCHAR
STARTCHAR C005
ENCODING 5
SWIDTH 714 0
DWIDTH 9 0
BBX 9 14 0 -3
BITMAP
0000
7800
4000
7000
4000
7800
0000
0000
1100
1900
1500
1300
1100
0000
ENDCHAR
STARTCHAR C006
ENCODING 6
SWIDTH 714 0
DWIDTH 9 0
BBX 9 14 0 -3
BITMAP
0000
3000
4800
7800
4800
4800
0000
0000
0900
0a00
0c00
0a00
0900
0000
ENDCHAR
STARTCHAR C007
ENCODING 7
SWIDTH 714 0
DWIDTH 9 0
BBX 9 14 0 -3
BITMAP
0000
0000
1800
3c00
3c00
3c00
3c00
6600
c300
ff00
1800
0000
0000
0000
ENDCHAR
STARTCHAR C010
ENCODING 8
SWIDTH 714 0
DWIDTH 9 0
BBX 9 14 0 -3
BITMAP
0000
6000
5000
6000
5000
6000
0000
0000
0e00
0800
0400
0200
0e00
0000
ENDCHAR
STARTCHAR C011
ENCODING 9
SWIDTH 714 0
DWIDTH 9 0
BBX 9 14 0 -3
BITMAP
0000
4400
4400
7c00
4400
4400
0000
0000
1f00
0400
0400
0400
0400
0000
ENDCHAR
STARTCHAR C012
ENCODING 10
SWIDTH 714 0
DWIDTH 9 0
BBX 9 14 0 -3
BITMAP
0000
4400
6400
5400
4c00
4400
0000
0000
0800
0800
0800
0800
0f00
0000
ENDCHAR
STARTCHAR C013
ENCODING 11
SWIDTH 714 0
DWIDTH 9 0
BBX 9 14 0 -3
BITMAP
0000
4400
4400
2800
2800
1000
0000
0000
1f00
0400
0400
0400
0400
0000
ENDCHAR
STARTCHAR C014
ENCODING 12
SWIDTH 714 0
DWIDTH 9 0
BBX 9 14 0 -3
BITMAP
0000
7c00
4000
7800
4000
4000
0000
0000
0f00
0800
0f00
0800
0800
0000
ENDCHAR
STARTCHAR C015
ENCODING 13
SWIDTH 714 0
DWIDTH 9 0
BBX 9 14 0 -3
BITMAP
0000
3000
4800
4000
4800
3000
0000
0000
0e00
0900
0e00
0a00
0900
0000
ENDCHAR
STARTCHAR C016
ENCODING 14
SWIDTH 714 0
DWIDTH 9 0
BBX 9 14 0 -3
BITMAP
0000
3000
4000
2000
1000
6000
0000
0000
0600
0900
0900
0900
0600
0000
ENDCHAR
STARTCHAR C017
ENCODING 15
SWIDTH 714 0
DWIDTH 9 0
BBX 9 14 0 -3
BITMAP
0000
3000
4000
2000
1000
6000
0000
0000
0e00
0400
0400
0400
0e00
0000
ENDCHAR
STARTCHAR C020
ENCODING 16
SWIDTH 714 0
DWIDTH 9 0
BBX 9 14 0 -3
BITMAP
0000
7000
4800
4800
4800
7000
0000
0000
0f00
0800
0e00
0800
0f00
0000
ENDCHAR
STARTCHAR C021
ENCODING 17
SWIDTH 714 0
DWIDTH 9 0
BBX 9 14 0 -3
BITMAP
0000
7000
4800
4800
4800
7000
0000
0000
0400
0c00
0400
0400
0e00
0000
ENDCHAR
STARTCHAR C022
ENCODING 18
SWIDTH 714 0
DWIDTH 9 0
BBX 9 14 0 -3
BITMAP
0000
7000
4800
4800
4800
7000
0000
0000
0c00
0200
0400
0800
0e00
0000
ENDCHAR
STARTCHAR C023
ENCODING 19
SWIDTH 714 0
DWIDTH 9 0
BBX 9 14 0 -3
BITMAP
0000
7000
4800
4800
4800
7000
0000
0000
0c00
0200
0400
0200
0c00
0000
ENDCHAR
STARTCHAR C024
ENCODING 20
SWIDTH 714 0
DWIDTH 9 0
BBX 9 14 0 -3
BITMAP
0000
7000
4800
4800
4800
7000
0000
0000
0600
0a00
0f00
0200
0200
0000
ENDCHAR
STARTCHAR C025
ENCODING 21
SWIDTH 714 0
DWIDTH 9 0
BBX 9 14 0 -3
BITMAP
0000
4400
6400
5400
4c00
4400
0000
0000
0900
0a00
0c00
0a00
0900
0000
ENDCHAR
STARTCHAR C026
ENCODING 22
SWIDTH 714 0
DWIDTH 9 0
BBX 9 14 0 -3
BITMAP
0000
3000
4000
2000
1000
6000
0000
0000
1100
1900
1500
1300
1100
0000
ENDCHAR
STARTCHAR C027
ENCODING 23
SWIDTH 714 0
DWIDTH 9 0
BBX 9 14 0 -3
BITMAP
0000
7800
4000
7000
4000
7800
0000
0000
0c00
0a00
0c00
0a00
0c00
0000
ENDCHAR
STARTCHAR C030
ENCODING 24
SWIDTH 714 0
DWIDTH 9 0
BBX 9 14 0 -3
BITMAP
0000
3000
4800
4000
4800
3000
0000
0000
1100
1900
1500
1300
1100
0000
ENDCHAR
STARTCHAR C031
ENCODING 25
SWIDTH 714 0
DWIDTH 9 0
BBX 9 14 0 -3
BITMAP
0000
7800
4000
7000
4000
7800
0000
0000
1100
1b00
1500
1100
1100
0000
ENDCHAR
STARTCHAR C032
ENCODING 26
SWIDTH 714 0
DWIDTH 9 0
BBX 9 14 0 -3
BITMAP
0000
3000
4000
2000
1000
6000
0000
0000
0c00
0a00
0c00
0a00
0c00
0000
ENDCHAR
STARTCHAR C033
ENCODING 27
SWIDTH 714 0
DWIDTH 9 0
BBX 9 14 0 -3
BITMAP
0000
7800
4000
7000
4000
7800
0000
0000
0e00
0800
0400
0200
0e00
0000
ENDCHAR
STARTCHAR C034
ENCODING 28
SWIDTH 714 0
DWIDTH 9 0
BBX 9 14 0 -3
BITMAP
0000
7c00
4000
7800
4000
4000
0000
0000
0e00
0800
0400
0200
0e00
0000
ENDCHAR
STARTCHAR C035
ENCODING 29
SWIDTH 714 0
DWIDTH 9 0
BBX 9 14 0 -3
BITMAP
0000
3000
4800
4000
4800
3800
0000
0000
0e00
0800
0400
0200
0e00
0000
ENDCHAR
STARTCHAR C036
ENCODING 30
SWIDTH 714 0
DWIDTH 9 0
BBX 9 14 0 -3
BITMAP
0000
7000
4800
7000
5000
4800
0000
0000
0e00
0800
0400
0200
0e00
0000
ENDCHAR
STARTCHAR C037
ENCODING 31
SWIDTH 714 0
DWIDTH 9 0
BBX 9 14 0 -3
BITMAP
0000
4800
4800
4800
4800
3000
0000
0000
0e00
0800
0400
0200
0e00
0000
ENDCHAR
STARTCHAR C040
ENCODING 32
SWIDTH 714 0
DWIDTH 9 0
BBX 9 14 0 -3
BITMAP
0000
0000
0000
0000
0000
0000
0000
0000
0000
0000
0000
0000
0000
0000
ENDCHAR
STARTCHAR !
ENCODING 33
SWIDTH 714 0
DWIDTH 9 0
BBX 9 14 0 -3
BITMAP
1800
1800
1800
1800
1800
1800
1800
0000
0000
1800
1800
0000
0000
0000
ENDCHAR
STARTCHAR "
ENCODING 34
SWIDTH 714 0
DWIDTH 9 0
BBX 9 14 0 -3
BITMAP
3600
3600
3600
3600
0000
0000
0000
0000
0000
0000
0000
0000
0000
0000
ENDCHAR
STARTCHAR #
ENCODING 35
SWIDTH 714 0
DWIDTH 9 0
BBX 9 14 0 -3
BITMAP
0000
0000
6600
6600
ff00
6600
6600
ff00
6600
6600
0000
0000
0000
0000
ENDCHAR
STARTCHAR $
ENCODING 36
SWIDTH 714 0
DWIDTH 9 0
BBX 9 14 0 -3
BITMAP
1800
7e00
ff00
d800
f800
7e00
1f00
1b00
ff00
7e00
1800
0000
0000
0000
ENDCHAR
STARTCHAR %
ENCODING 37
SWIDTH 714 0
DWIDTH 9 0
BBX 9 14 0 -3
BITMAP
7000
d800
db00
7600
0c00
1800
3000
6e00
db00
1b00
0e00
0000
0000
0000
ENDCHAR
STARTCHAR &
ENCODING 38
SWIDTH 714 0
DWIDTH 9 0
BBX 9 14 0 -3
BITMAP
3800
6c00
cc00
cc00
d800
7000
7000
d800
cf00
c600
7f00
0000
0000
0000
ENDCHAR
STARTCHAR '
ENCODING 39
SWIDTH 714 0
DWIDTH 9 0
BBX 9 14 0 -3
BITMAP
0e00
0c00
1c00
1800
0000
0000
0000
0000
0000
0000
0000
0000
0000
0000
ENDCHAR
STARTCHAR (
ENCODING 40
SWIDTH 714 0
DWIDTH 9 0
BBX 9 14 0 -3
BITMAP
0c00
1800
3000
3000
3000
3000
3000
3000
3000
1800
0c00
0000
0000
0000
ENDCHAR
STARTCHAR )
ENCODING 41
SWIDTH 714 0
DWIDTH 9 0
BBX 9 14 0 -3
BITMAP
3000
1800
0c00
0c00
0c00
0c00
0c00
0c00
0c00
1800
3000
0000
0000
0000
ENDCHAR
STARTCHAR *
ENCODING 42
SWIDTH 714 0
DWIDTH 9 0
BBX 9 14 0 -3
BITMAP
0000
0000
9900
5a00
3c00
ff00
3c00
5a00
9900
0000
0000
0000
0000
0000
ENDCHAR
STARTCHAR +
ENCODING 43
SWIDTH 714 0
DWIDTH 9 0
BBX 9 14 0 -3
BITMAP
0000
0000
1800
1800
1800
ff00
ff00
1800
1800
1800
0000
0000
0000
0000
ENDCHAR
STARTCHAR ,
ENCODING 44
SWIDTH 714 0
DWIDTH 9 0
BBX 9 14 0 -3
BITMAP
0000
0000
0000
0000
0000
0000
0000
1c00
1c00
1800
3000
0000
0000
0000
ENDCHAR
STARTCHAR -
ENCODING 45
SWIDTH 714 0
DWIDTH 9 0
BBX 9 14 0 -3
BITMAP
0000
0000
0000
0000
0000
ff00
ff00
0000
0000
0000
0000
0000
0000
0000
ENDCHAR
STARTCHAR .
ENCODING 46
SWIDTH 714 0
DWIDTH 9 0
BBX 9 14 0 -3
BITMAP
0000
0000
0000
0000
0000
0000
0000
0000
3800
3800
0000
0000
0000
0000
ENDCHAR
STARTCHAR /
ENCODING 47
SWIDTH 714 0
DWIDTH 9 0
BBX 9 14 0 -3
BITMAP
0300
0300
0600
0600
0c00
0c00
1800
1800
3000
3000
6000
6000
0000
0000
ENDCHAR
STARTCHAR 0
ENCODING 48
SWIDTH 714 0
DWIDTH 9 0
BBX 9 14 0 -3
BITMAP
3c00
6600
c300
c700
cf00
db00
f300
e300
c300
6600
3c00
0000
0000
0000
ENDCHAR
STARTCHAR 1
ENCODING 49
SWIDTH 714 0
DWIDTH 9 0
BBX 9 14 0 -3
BITMAP
1800
3800
7800
1800
1800
1800
1800
1800
1800
1800
7e00
0000
0000
0000
ENDCHAR
STARTCHAR 2
ENCODING 50
SWIDTH 714 0
DWIDTH 9 0
BBX 9 14 0 -3
BITMAP
7e00
e700
0300
0600
0c00
1800
3000
6000
c000
c000
ff00
0000
0000
0000
ENDCHAR
STARTCHAR 3
ENCODING 51
SWIDTH 714 0
DWIDTH 9 0
BBX 9 14 0 -3
BITMAP
7e00
e700
0300
0300
0700
7e00
0700
0300
0300
e700
7e00
0000
0000
0000
ENDCHAR
STARTCHAR 4
ENCODING 52
SWIDTH 714 0
DWIDTH 9 0
BBX 9 14 0 -3
BITMAP
0c00
1c00
3c00
6c00
cc00
ff00
0c00
0c00
0c00
0c00
0c00
0000
0000
0000
ENDCHAR
STARTCHAR 5
ENCODING 53
SWIDTH 714 0
DWIDTH 9 0
BBX 9 14 0 -3
BITMAP
ff00
c000
c000
c000
c000
fe00
0700
0300
0300
e700
7e00
0000
0000
0000
ENDCHAR
STARTCHAR 6
ENCODING 54
SWIDTH 714 0
DWIDTH 9 0
BBX 9 14 0 -3
BITMAP
7e00
e700
c000
c000
c000
fe00
c700
c300
c300
e700
7e00
0000
0000
0000
ENDCHAR
STARTCHAR 7
ENCODING 55
SWIDTH 714 0
DWIDTH 9 0
BBX 9 14 0 -3
BITMAP
ff00
0300
0300
0300
0600
0c00
1800
3000
3000
3000
3000
0000
0000
0000
ENDCHAR
STARTCHAR 8
ENCODING 56
SWIDTH 714 0
DWIDTH 9 0
BBX 9 14 0 -3
BITMAP
7e00
e700
c300
c300
e700
7e00
e700
c300
c300
e700
7e00
0000
0000
0000
ENDCHAR
STARTCHAR 9
ENCODING 57
SWIDTH 714 0
DWIDTH 9 0
BBX 9 14 0 -3
BITMAP
7e00
e700
c300
c300
e700
7f00
0300
0300
0300
e700
7e00
0000
0000
0000
ENDCHAR
STARTCHAR :
ENCODING 58
SWIDTH 714 0
DWIDTH 9 0
BBX 9 14 0 -3
BITMAP
0000
0000
0000
0000
3800
3800
0000
0000
3800
3800
0000
0000
0000
0000
ENDCHAR
STARTCHAR ;
ENCODING 59
SWIDTH 714 0
DWIDTH 9 0
BBX 9 14 0 -3
BITMAP
0000
0000
0000
1c00
1c00
0000
0000
1c00
1c00
1800
3000
0000
0000
0000
ENDCHAR
STARTCHAR <
ENCODING 60
SWIDTH 714 0
DWIDTH 9 0
BBX 9 14 0 -3
BITMAP
0600
0c00
1800
3000
6000
c000
6000
3000
1800
0c00
0600
0000
0000
0000
ENDCHAR
STARTCHAR =
ENCODING 61
SWIDTH 714 0
DWIDTH 9 0
BBX 9 14 0 -3
BITMAP
0000
0000
0000
0000
ff00
ff00
0000
ff00
ff00
0000
0000
0000
0000
0000
ENDCHAR
STARTCHAR >
ENCODING 62
SWIDTH 714 0
DWIDTH 9 0
BBX 9 14 0 -3
BITMAP
6000
3000
1800
0c00
0600
0300
0600
0c00
1800
3000
6000
0000
0000
0000
ENDCHAR
STARTCHAR ?
ENCODING 63
SWIDTH 714 0
DWIDTH 9 0
BBX 9 14 0 -3
BITMAP
7e00
c300
c300
0300
0600
0c00
1800
1800
0000
0000
1800
0000
0000
0000
ENDCHAR
STARTCHAR @
ENCODING 64
SWIDTH 714 0
DWIDTH 9 0
BBX 9 14 0 -3
BITMAP
0000
0000
0000
7e00
c300
dd00
d300
db00
cf00
6000
3f00
0000
0000
0000
ENDCHAR
STARTCHAR A
ENCODING 65
SWIDTH 714 0
DWIDTH 9 0
BBX 9 14 0 -3
BITMAP
1800
3c00
6600
c300
c300
c300
ff00
c300
c300
c300
c300
0000
0000
0000
ENDCHAR
STARTCHAR B
ENCODING 66
SWIDTH 714 0
DWIDTH 9 0
BBX 9 14 0 -3
BITMAP
fe00
c700
c300
c300
c700
fe00
c700
c300
c300
c700
fe00
0000
0000
0000
ENDCHAR
STARTCHAR C
ENCODING 67
SWIDTH 714 0
DWIDTH 9 0
BBX 9 14 0 -3
BITMAP
7e00
e700
c000
c000
c000
c000
c000
c000
c000
e700
7e00
0000
0000
0000
ENDCHAR
STARTCHAR D
ENCODING 68
SWIDTH 714 0
DWIDTH 9 0
BBX 9 14 0 -3
BITMAP
fc00
ce00
c700
c300
c300
c300
c300
c300
c700
ce00
fc00
0000
0000
0000
ENDCHAR
STARTCHAR E
ENCODING 69
SWIDTH 714 0
DWIDTH 9 0
BBX 9 14 0 -3
BITMAP
ff00
c000
c000
c000
c000
fc00
c000
c000
c000
c000
ff00
0000
0000
0000
ENDCHAR
STARTCHAR F
ENCODING 70
SWIDTH 714 0
DWIDTH 9 0
BBX 9 14 0 -3
BITMAP
ff00
c000
c000
c000
fc00
c000
c000
c000
c000
c000
c000
0000
0000
0000
ENDCHAR
STARTCHAR G
ENCODING 71
SWIDTH 714 0
DWIDTH 9 0
BBX 9 14 0 -3
BITMAP
7e00
e700
c000
c000
c000
c000
cf00
c300
c300
e700
7e00
0000
0000
0000
ENDCHAR
STARTCHAR H
ENCODING 72
SWIDTH 714 0
DWIDTH 9 0
BBX 9 14 0 -3
BITMAP
c300
c300
c300
c300
c300
ff00
c300
c300
c300
c300
c300
0000
0000
0000
ENDCHAR
STARTCHAR I
ENCODING 73
SWIDTH 714 0
DWIDTH 9 0
BBX 9 14 0 -3
BITMAP
7e00
1800
1800
1800
1800
1800
1800
1800
1800
1800
7e00
0000
0000
0000
ENDCHAR
STARTCHAR J
ENCODING 74
SWIDTH 714 0
DWIDTH 9 0
BBX 9 14 0 -3
BITMAP
0600
0600
0600
0600
0600
0600
0600
0600
c600
ee00
7c00
0000
0000
0000
ENDCHAR
STARTCHAR K
ENCODING 75
SWIDTH 714 0
DWIDTH 9 0
BBX 9 14 0 -3
BITMAP
c300
c600
cc00
d800
f000
e000
f000
d800
cc00
c600
c300
0000
0000
0000
ENDCHAR
STARTCHAR L
ENCODING 76
SWIDTH 714 0
DWIDTH 9 0
BBX 9 14 0 -3
BITMAP
c000
c000
c000
c000
c000
c000
c000
c000
c000
c000
ff00
0000
0000
0000
ENDCHAR
STARTCHAR M
ENCODING 77
SWIDTH 714 0
DWIDTH 9 0
BBX 9 14 0 -3
BITMAP
c300
e700
ff00
ff00
db00
c300
c300
c300
c300
c300
c300
0000
0000
0000
ENDCHAR
STARTCHAR N
ENCODING 78
SWIDTH 714 0
DWIDTH 9 0
BBX 9 14 0 -3
BITMAP
e300
e300
f300
f300
fb00
db00
df00
cf00
cf00
c700
c700
0000
0000
0000
ENDCHAR
STARTCHAR O
ENCODING 79
SWIDTH 714 0
DWIDTH 9 0
BBX 9 14 0 -3
BITMAP
7e00
e700
c300
c300
c300
c300
c300
c300
c300
e700
7e00
0000
0000
0000
ENDCHAR
STARTCHAR P
ENCODING 80
SWIDTH 714 0
DWIDTH 9 0
BBX 9 14 0 -3
BITMAP
fe00
c700
c300
c300
c700
fe00
c000
c000
c000
c000
c000
0000
0000
0000
ENDCHAR
STARTCHAR Q
ENCODING 81
SWIDTH 714 0
DWIDTH 9 0
BBX 9 14 0 -3
BITMAP
3c00
6600
c300
c300
c300
c300
c300
db00
df00
6e00
3f00
0000
0000
0000
ENDCHAR
STARTCHAR R
ENCODING 82
SWIDTH 714 0
DWIDTH 9 0
BBX 9 14 0 -3
BITMAP
fe00
c700
c300
c300
c700
fe00
f000
d800
cc00
c600
c300
0000
0000
0000
ENDCHAR
STARTCHAR S
ENCODING 83
SWIDTH 714 0
DWIDTH 9 0
BBX 9 14 0 -3
BITMAP
7e00
e700
c000
c000
e000
7e00
0700
0300
0300
e700
7e00
0000
0000
0000
ENDCHAR
STARTCHAR T
ENCODING 84
SWIDTH 714 0
DWIDTH 9 0
BBX 9 14 0 -3
BITMAP
ff00
1800
1800
1800
1800
1800
1800
1800
1800
1800
1800
0000
0000
0000
ENDCHAR
STARTCHAR U
ENCODING 85
SWIDTH 714 0
DWIDTH 9 0
BBX 9 14 0 -3
BITMAP
c300
c300
c300
c300
c300
c300
c300
c300
c300
e700
7e00
0000
0000
0000
ENDCHAR
STARTCHAR V
ENCODING 86
SWIDTH 714 0
DWIDTH 9 0
BBX 9 14 0 -3
BITMAP
c300
c300
c300
c300
c300
c300
6600
6600
3c00
3c00
1800
0000
0000
0000
ENDCHAR
STARTCHAR W
ENCODING 87
SWIDTH 714 0
DWIDTH 9 0
BBX 9 14 0 -3
BITMAP
c300
c300
c300
c300
c300
db00
db00
ff00
ff00
e700
c300
0000
0000
0000
ENDCHAR
STARTCHAR X
ENCODING 88
SWIDTH 714 0
DWIDTH 9 0
BBX 9 14 0 -3
BITMAP
c300
6600
6600
3c00
3c00
1800
3c00
3c00
6600
6600
c300
0000
0000
0000
ENDCHAR
STARTCHAR Y
ENCODING 89
SWIDTH 714 0
DWIDTH 9 0
BBX 9 14 0 -3
BITMAP
c300
6600
6600
3c00
3c00
1800
1800
1800
1800
1800
1800
0000
0000
0000
ENDCHAR
STARTCHAR Z
ENCODING 90
SWIDTH 714 0
DWIDTH 9 0
BBX 9 14 0 -3
BITMAP
ff00
0300
0300
0600
0c00
7e00
3000
6000
c000
c000
ff00
0000
0000
0000
ENDCHAR
STARTCHAR [
ENCODING 91
SWIDTH 714 0
DWIDTH 9 0
BBX 9 14 0 -3
BITMAP
3c00
3000
3000
3000
3000
3000
3000
3000
3000
3000
3c00
0000
0000
0000
ENDCHAR
STARTCHAR \
ENCODING 92
SWIDTH 714 0
DWIDTH 9 0
BBX 9 14 0 -3
BITMAP
6000
6000
3000
3000
1800
1800
0c00
0c00
0600
0600
0300
0300
0000
0000
ENDCHAR
STARTCHAR ]
ENCODING 93
SWIDTH 714 0
DWIDTH 9 0
BBX 9 14 0 -3
BITMAP
3c00
0c00
0c00
0c00
0c00
0c00
0c00
0c00
0c00
0c00
3c00
0000
0000
0000
ENDCHAR
STARTCHAR ^
ENCODING 94
SWIDTH 714 0
DWIDTH 9 0
BBX 9 14 0 -3
BITMAP
1800
3c00
6600
c300
0000
0000
0000
0000
0000
0000
0000
0000
0000
0000
ENDCHAR
STARTCHAR _
ENCODING 95
SWIDTH 714 0
DWIDTH 9 0
BBX 9 14 0 -3
BITMAP
0000
0000
0000
0000
0000
0000
0000
0000
0000
0000
0000
ff00
ff00
0000
ENDCHAR
STARTCHAR `
ENCODING 96
SWIDTH 714 0
DWIDTH 9 0
BBX 9 14 0 -3
BITMAP
7000
3000
3800
1800
0000
0000
0000
0000
0000
0000
0000
0000
0000
0000
ENDCHAR
STARTCHAR a
ENCODING 97
SWIDTH 714 0
DWIDTH 9 0
BBX 9 14 0 -3
BITMAP
0000
0000
0000
0000
7e00
c300
0300
7f00
c300
c300
7f00
0000
0000
0000
ENDCHAR
STARTCHAR b
ENCODING 98
SWIDTH 714 0
DWIDTH 9 0
BBX 9 14 0 -3
BITMAP
c000
c000
c000
c000
c000
fe00
c300
c300
c300
c300
fe00
0000
0000
0000
ENDCHAR
STARTCHAR c
ENCODING 99
SWIDTH 714 0
DWIDTH 9 0
BBX 9 14 0 -3
BITMAP
0000
0000
0000
0000
7e00
c300
c000
c000
c000
c300
7e00
0000
0000
0000
ENDCHAR
STARTCHAR d
ENCODING 100
SWIDTH 714 0
DWIDTH 9 0
BBX 9 14 0 -3
BITMAP
0300
0300
0300
0300
0300
7f00
c300
c300
c300
c300
7f00
0000
0000
0000
ENDCHAR
STARTCHAR e
ENCODING 101
SWIDTH 714 0
DWIDTH 9 0
BBX 9 14 0 -3
BITMAP
0000
0000
0000
0000
7e00
c300
c300
fe00
c000
c000
7f00
0000
0000
0000
ENDCHAR
STARTCHAR f
ENCODING 102
SWIDTH 714 0
DWIDTH 9 0
BBX 9 14 0 -3
BITMAP
1e00
3300
3000
3000
3000
fc00
3000
3000
3000
3000
3000
0000
0000
0000
ENDCHAR
STARTCHAR g
ENCODING 103
SWIDTH 714 0
DWIDTH 9 0
BBX 9 14 0 -3
BITMAP
0000
0000
0000
0000
7e00
c300
c300
c300
7f00
0300
0300
c300
7e00
0000
ENDCHAR
STARTCHAR h
ENCODING 104
SWIDTH 714 0
DWIDTH 9 0
BBX 9 14 0 -3
BITMAP
c000
c000
c000
c000
fe00
c300
c300
c300
c300
c300
c300
0000
0000
0000
ENDCHAR
STARTCHAR i
ENCODING 105
SWIDTH 714 0
DWIDTH 9 0
BBX 9 14 0 -3
BITMAP
0000
1800
0000
0000
1800
1800
1800
1800
1800
1800
1800
0000
0000
0000
ENDCHAR
STARTCHAR j
ENCODING 106
SWIDTH 714 0
DWIDTH 9 0
BBX 9 14 0 -3
BITMAP
0000
0c00
0000
0000
0c00
0c00
0c00
0c00
0c00
0c00
0c00
6c00
3800
0000
ENDCHAR
STARTCHAR k
ENCODING 107
SWIDTH 714 0
DWIDTH 9 0
BBX 9 14 0 -3
BITMAP
c000
c000
c000
c000
c600
cc00
d800
f000
f800
cc00
c600
0000
0000
0000
ENDCHAR
STARTCHAR l
ENCODING 108
SWIDTH 714 0
DWIDTH 9 0
BBX 9 14 0 -3
BITMAP
7800
1800
1800
1800
1800
1800
1800
1800
1800
1800
7e00
0000
0000
0000
ENDCHAR
STARTCHAR m
ENCODING 109
SWIDTH 714 0
DWIDTH 9 0
BBX 9 14 0 -3
BITMAP
0000
0000
0000
0000
fe00
db00
db00
db00
db00
db00
db00
0000
0000
0000
ENDCHAR
STARTCHAR n
ENCODING 110
SWIDTH 714 0
DWIDTH 9 0
BBX 9 14 0 -3
BITMAP
0000
0000
0000
0000
fc00
c600
c600
c600
c600
c600
c600
0000
0000
0000
ENDCHAR
STARTCHAR o
ENCODING 111
SWIDTH 714 0
DWIDTH 9 0
BBX 9 14 0 -3
BITMAP
0000
0000
0000
0000
7c00
c600
c600
c600
c600
c600
7c00
0000
0000
0000
ENDCHAR
STARTCHAR p
ENCODING 112
SWIDTH 714 0
DWIDTH 9 0
BBX 9 14 0 -3
BITMAP
0000
0000
0000
0000
fe00
c300
c300
c300
c300
fe00
c000
c000
c000
0000
ENDCHAR
STARTCHAR q
ENCODING 113
SWIDTH 714 0
DWIDTH 9 0
BBX 9 14 0 -3
BITMAP
0000
0000
0000
0000
7f00
c300
c300
c300
c300
7f00
0300
0300
0300
0000
ENDCHAR
STARTCHAR r
ENCODING 114
SWIDTH 714 0
DWIDTH 9 0
BBX 9 14 0 -3
BITMAP
0000
0000
0000
0000
fe00
e000
c000
c000
c000
c000
c000
0000
0000
0000
ENDCHAR
STARTCHAR s
ENCODING 115
SWIDTH 714 0
DWIDTH 9 0
BBX 9 14 0 -3
BITMAP
0000
0000
0000
0000
7f00
c000
c000
7e00
0300
0300
fe00
0000
0000
0000
ENDCHAR
STARTCHAR t
ENCODING 116
SWIDTH 714 0
DWIDTH 9 0
BBX 9 14 0 -3
BITMAP
0000
3000
3000
3000
fc00
3000
3000
3000
3000
3600
1c00
0000
0000
0000
ENDCHAR
STARTCHAR u
ENCODING 117
SWIDTH 714 0
DWIDTH 9 0
BBX 9 14 0 -3
BITMAP
0000
0000
0000
0000
c600
c600
c600
c600
c600
c600
7e00
0000
0000
0000
ENDCHAR
STARTCHAR v
ENCODING 118
SWIDTH 714 0
DWIDTH 9 0
BBX 9 14 0 -3
BITMAP
0000
0000
0000
0000
c300
c300
6600
6600
3c00
3c00
1800
0000
0000
0000
ENDCHAR
STARTCHAR w
ENCODING 119
SWIDTH 714 0
DWIDTH 9 0
BBX 9 14 0 -3
BITMAP
0000
0000
0000
0000
c300
c300
c300
db00
ff00
e700
c300
0000
0000
0000
ENDCHAR
STARTCHAR x
ENCODING 120
SWIDTH 714 0
DWIDTH 9 0
BBX 9 14 0 -3
BITMAP
0000
0000
0000
0000
c300
6600
3c00
1800
3c00
6600
c300
0000
0000
0000
ENDCHAR
STARTCHAR y
ENCODING 121
SWIDTH 714 0
DWIDTH 9 0
BBX 9 14 0 -3
BITMAP
0000
0000
0000
0000
c300
6600
6600
3c00
1800
3000
6000
6000
c000
0000
ENDCHAR
STARTCHAR z
ENCODING 122
SWIDTH 714 0
DWIDTH 9 0
BBX 9 14 0 -3
BITMAP
0000
0000
0000
0000
ff00
0600
0c00
1800
3000
6000
ff00
0000
0000
0000
ENDCHAR
STARTCHAR {
ENCODING 123
SWIDTH 714 0
DWIDTH 9 0
BBX 9 14 0 -3
BITMAP
0f00
1800
1800
1800
3800
f000
3800
1800
1800
1800
0f00
0000
0000
0000
ENDCHAR
STARTCHAR |
ENCODING 124
SWIDTH 714 0
DWIDTH 9 0
BBX 9 14 0 -3
BITMAP
1800
1800
1800
1800
1800
1800
1800
1800
1800
1800
1800
1800
1800
0000
ENDCHAR
STARTCHAR }
ENCODING 125
SWIDTH 714 0
DWIDTH 9 0
BBX 9 14 0 -3
BITMAP
f000
1800
1800
1800
1c00
0f00
1c00
1800
1800
1800
f000
0000
0000
0000
ENDCHAR
STARTCHAR ~
ENCODING 126
SWIDTH 714 0
DWIDTH 9 0
BBX 9 14 0 -3
BITMAP
0000
0000
0000
6000
f100
8f00
0600
0000
0000
0000
0000
0000
0000
0000
ENDCHAR
STARTCHAR C177
ENCODING 127
SWIDTH 714 0
DWIDTH 9 0
BBX 9 14 0 -3
BITMAP
0000
7000
4800
4800
4800
7000
0000
0000
0800
0800
0800
0800
0f00
0000
ENDCHAR
ENDFONT
